# xmcd CD database file
#
# Track frame offsets:
#	187
#	27060
#	50120
#	80140
#	102090
#	124257
#	145185
#	159082
#
# Disc length: 2546 seconds
#
# Revision: 0
# Processed by: cddbd v1.5PL3 Copyright (c) Steve Scherf et al.
# Submitted via: CDex 1.51
#
DISCID=6309f008
DTITLE=Harrison, Wendell - Fly By Night
DYEAR=1990
DGENRE=Jazz
TTITLE0=Spank
TTITLE1=Tons and Tons of B.S.
TTITLE2=In Your Own Sweet Way
TTITLE3=Fly By Night
TTITLE4=Bye Bye Black Bird
TTITLE5=Just One Of Those Things
TTITLE6=Merciful
TTITLE7=Changing The Scene
EXTD=YEAR: 1990
EXTT0=
EXTT1=
EXTT2=
EXTT3=
EXTT4=
EXTT5=
EXTT6=
EXTT7=
PLAYORDER=
